<?xml version="1.0" encoding="utf-8"?>
<!-- Generator: Adobe Illustrator 19.0.0, SVG Export Plug-In . SVG Version: 6.00 Build 0)  -->
<svg version="1.1" id="Layer_1" xmlns="http://www.w3.org/2000/svg" xmlns:xlink="http://www.w3.org/1999/xlink" x="0px" y="0px"
	 viewBox="0 0 90.9 92.2" style="enable-background:new 0 0 90.9 92.2;" xml:space="preserve">
<style type="text/css">
	.st0{fill:#FFFFFF;stroke:#BCBEC0;stroke-miterlimit:10;}
	.st1{fill:#0095DA;}
	.st2{fill:#939598;}
	.st3{fill:#FFFFFF;}
</style>
<path id="background_8_" class="st0" d="M90.4,66.9c0,1.3-0.9,2.9-2.1,3.6l-36,20.8c-1.1,0.7-3,0.7-4.1,0l-36-20.8
	c-1.1-0.7-2.1-2.3-2.1-3.6V25.3c0-1.3,0.9-2.9,2.1-3.6L48.3,1c1.1-0.7,3-0.7,4.1,0l36,20.8c1.1,0.7,2.1,2.3,2.1,3.6V66.9z"/>
<path id="name_x5F_bg_8_" class="st1" d="M51.5,82.1c0,1.4-1.2,2.6-2.6,2.6H2.6c-1.4,0-2.6-1.2-2.6-2.6V66.9c0-1.4,1.2-2.6,2.6-2.6
	h46.3c1.4,0,2.6,1.2,2.6,2.6V82.1z"/>
<path class="st2" d="M56.9,21.7H51c-0.2,0-0.4-0.2-0.4-0.4c0-0.2,0.2-0.4,0.4-0.4h5.9c0.2,0,0.4,0.2,0.4,0.4
	C57.4,21.5,57.2,21.7,56.9,21.7z"/>
<path class="st2" d="M71.7,21.7h-5.9c-0.2,0-0.4-0.2-0.4-0.4c0-0.2,0.2-0.4,0.4-0.4h5.9c0.2,0,0.4,0.2,0.4,0.4
	C72.1,21.5,71.9,21.7,71.7,21.7z"/>
<path class="st2" d="M76.5,21.7h-3.4c-0.2,0-0.4-0.2-0.4-0.4c0-0.2,0.2-0.4,0.4-0.4h3.4c0.2,0,0.4,0.2,0.4,0.4
	C77,21.5,76.8,21.7,76.5,21.7z"/>
<g>
	<path class="st2" d="M56.9,44.1H51c-0.2,0-0.4-0.2-0.4-0.4c0-0.2,0.2-0.4,0.4-0.4h5.9c0.2,0,0.4,0.2,0.4,0.4
		C57.3,43.9,57.1,44.1,56.9,44.1z"/>
	<path class="st2" d="M62.5,44.1h-4.2c-0.2,0-0.4-0.2-0.4-0.4c0-0.2,0.2-0.4,0.4-0.4h4.2c0.2,0,0.4,0.2,0.4,0.4
		C63,43.9,62.8,44.1,62.5,44.1z"/>
	<path class="st2" d="M71.6,44.1h-7.6c-0.2,0-0.4-0.2-0.4-0.4c0-0.2,0.2-0.4,0.4-0.4h7.6c0.2,0,0.4,0.2,0.4,0.4
		C72.1,43.9,71.9,44.1,71.6,44.1z"/>
	<path class="st2" d="M76.5,44.1h-3.4c-0.2,0-0.4-0.2-0.4-0.4c0-0.2,0.2-0.4,0.4-0.4h3.4c0.2,0,0.4,0.2,0.4,0.4
		C76.9,43.9,76.8,44.1,76.5,44.1z"/>
</g>
<g>
	<path class="st2" d="M70.6,46.6h5.9c0.2,0,0.4-0.2,0.4-0.4c0-0.2-0.2-0.4-0.4-0.4h-5.9c-0.2,0-0.4,0.2-0.4,0.4
		C70.2,46.4,70.4,46.6,70.6,46.6z"/>
	<path class="st2" d="M65,46.6h4.2c0.2,0,0.4-0.2,0.4-0.4c0-0.2-0.2-0.4-0.4-0.4H65c-0.2,0-0.4,0.2-0.4,0.4
		C64.6,46.4,64.8,46.6,65,46.6z"/>
	<path class="st2" d="M55.9,46.6h7.6c0.2,0,0.4-0.2,0.4-0.4c0-0.2-0.2-0.4-0.4-0.4h-7.6c-0.2,0-0.4,0.2-0.4,0.4
		C55.5,46.4,55.7,46.6,55.9,46.6z"/>
</g>
<g>
	<path class="st2" d="M64.2,49.1h-5.9c-0.2,0-0.4-0.2-0.4-0.4c0-0.2,0.2-0.4,0.4-0.4h5.9c0.2,0,0.4,0.2,0.4,0.4
		C64.7,48.9,64.5,49.1,64.2,49.1z"/>
	<path class="st2" d="M71.7,49.1h-5.9c-0.2,0-0.4-0.2-0.4-0.4c0-0.2,0.2-0.4,0.4-0.4h5.9c0.2,0,0.4,0.2,0.4,0.4
		C72.1,48.9,71.9,49.1,71.7,49.1z"/>
	<path class="st2" d="M76.5,49.1h-3.4c-0.2,0-0.4-0.2-0.4-0.4c0-0.2,0.2-0.4,0.4-0.4h3.4c0.2,0,0.4,0.2,0.4,0.4
		C77,48.9,76.8,49.1,76.5,49.1z"/>
	<g>
		<path class="st2" d="M70.6,51.6h5.9c0.2,0,0.4-0.2,0.4-0.4c0-0.2-0.2-0.4-0.4-0.4h-5.9c-0.2,0-0.4,0.2-0.4,0.4
			C70.2,51.4,70.4,51.6,70.6,51.6z"/>
		<path class="st2" d="M63.3,51.6h5.9c0.2,0,0.4-0.2,0.4-0.4c0-0.2-0.2-0.4-0.4-0.4h-5.9c-0.2,0-0.4,0.2-0.4,0.4
			C62.9,51.4,63.1,51.6,63.3,51.6z"/>
		<path class="st2" d="M55.9,51.6h5.9c0.2,0,0.4-0.2,0.4-0.4c0-0.2-0.2-0.4-0.4-0.4h-5.9c-0.2,0-0.4,0.2-0.4,0.4
			C55.5,51.4,55.7,51.6,55.9,51.6z"/>
	</g>
	<g>
		<path class="st2" d="M62.5,54h-4.2c-0.2,0-0.4-0.2-0.4-0.4c0-0.2,0.2-0.4,0.4-0.4h4.2c0.2,0,0.4,0.2,0.4,0.4
			C63,53.8,62.8,54,62.5,54z"/>
		<path class="st2" d="M71.6,54h-7.6c-0.2,0-0.4-0.2-0.4-0.4c0-0.2,0.2-0.4,0.4-0.4h7.6c0.2,0,0.4,0.2,0.4,0.4
			C72.1,53.8,71.9,54,71.6,54z"/>
		<path class="st2" d="M76.5,54h-3.4c-0.2,0-0.4-0.2-0.4-0.4c0-0.2,0.2-0.4,0.4-0.4h3.4c0.2,0,0.4,0.2,0.4,0.4
			C76.9,53.8,76.8,54,76.5,54z"/>
	</g>
	<g>
		<path class="st2" d="M70.6,56.5h5.9c0.2,0,0.4-0.2,0.4-0.4c0-0.2-0.2-0.4-0.4-0.4h-5.9c-0.2,0-0.4,0.2-0.4,0.4
			C70.2,56.4,70.4,56.5,70.6,56.5z"/>
		<path class="st2" d="M65,56.5h4.2c0.2,0,0.4-0.2,0.4-0.4c0-0.2-0.2-0.4-0.4-0.4H65c-0.2,0-0.4,0.2-0.4,0.4
			C64.6,56.4,64.8,56.5,65,56.5z"/>
		<path class="st2" d="M55.9,56.5h7.6c0.2,0,0.4-0.2,0.4-0.4c0-0.2-0.2-0.4-0.4-0.4h-7.6c-0.2,0-0.4,0.2-0.4,0.4
			C55.5,56.4,55.7,56.5,55.9,56.5z"/>
		<path class="st2" d="M51,56.5h3.4c0.2,0,0.4-0.2,0.4-0.4c0-0.2-0.2-0.4-0.4-0.4H51c-0.2,0-0.4,0.2-0.4,0.4
			C50.6,56.4,50.8,56.5,51,56.5z"/>
	</g>
</g>
<g>
	<g>
		<path class="st2" d="M62.5,59h-4.2c-0.2,0-0.4-0.2-0.4-0.4c0-0.2,0.2-0.4,0.4-0.4h4.2c0.2,0,0.4,0.2,0.4,0.4
			C63,58.8,62.8,59,62.5,59z"/>
		<path class="st2" d="M71.6,59h-7.6c-0.2,0-0.4-0.2-0.4-0.4c0-0.2,0.2-0.4,0.4-0.4h7.6c0.2,0,0.4,0.2,0.4,0.4
			C72.1,58.8,71.9,59,71.6,59z"/>
		<path class="st2" d="M76.5,59h-3.4c-0.2,0-0.4-0.2-0.4-0.4c0-0.2,0.2-0.4,0.4-0.4h3.4c0.2,0,0.4,0.2,0.4,0.4
			C76.9,58.8,76.8,59,76.5,59z"/>
	</g>
	<g>
		<path class="st2" d="M70.6,61.5h5.9c0.2,0,0.4-0.2,0.4-0.4c0-0.2-0.2-0.4-0.4-0.4h-5.9c-0.2,0-0.4,0.2-0.4,0.4
			C70.2,61.3,70.4,61.5,70.6,61.5z"/>
		<path class="st2" d="M65,61.5h4.2c0.2,0,0.4-0.2,0.4-0.4c0-0.2-0.2-0.4-0.4-0.4H65c-0.2,0-0.4,0.2-0.4,0.4
			C64.6,61.3,64.8,61.5,65,61.5z"/>
		<path class="st2" d="M55.9,61.5h7.6c0.2,0,0.4-0.2,0.4-0.4c0-0.2-0.2-0.4-0.4-0.4h-7.6c-0.2,0-0.4,0.2-0.4,0.4
			C55.5,61.3,55.7,61.5,55.9,61.5z"/>
		<path class="st2" d="M51,61.5h3.4c0.2,0,0.4-0.2,0.4-0.4c0-0.2-0.2-0.4-0.4-0.4H51c-0.2,0-0.4,0.2-0.4,0.4
			C50.6,61.3,50.8,61.5,51,61.5z"/>
	</g>
</g>
<g>
	<path class="st2" d="M30,44.1h-5.9c-0.2,0-0.4-0.2-0.4-0.4c0-0.2,0.2-0.4,0.4-0.4H30c0.2,0,0.4,0.2,0.4,0.4
		C30.4,43.9,30.2,44.1,30,44.1z"/>
	<path class="st2" d="M35.6,44.1h-4.2c-0.2,0-0.4-0.2-0.4-0.4c0-0.2,0.2-0.4,0.4-0.4h4.2c0.2,0,0.4,0.2,0.4,0.4
		C36,43.9,35.8,44.1,35.6,44.1z"/>
	<path class="st2" d="M44.7,44.1h-7.6c-0.2,0-0.4-0.2-0.4-0.4c0-0.2,0.2-0.4,0.4-0.4h7.6c0.2,0,0.4,0.2,0.4,0.4
		C45.1,43.9,44.9,44.1,44.7,44.1z"/>
	<path class="st2" d="M49.6,44.1h-3.4c-0.2,0-0.4-0.2-0.4-0.4c0-0.2,0.2-0.4,0.4-0.4h3.4c0.2,0,0.4,0.2,0.4,0.4
		C50,43.9,49.8,44.1,49.6,44.1z"/>
</g>
<g>
	<path class="st2" d="M54.4,45.8h-2.9H51h-7.3c-0.2,0-0.4,0.2-0.4,0.4c0,0.2,0.2,0.4,0.4,0.4H51h0.5h2.9c0.2,0,0.4-0.2,0.4-0.4
		C54.8,46,54.6,45.8,54.4,45.8z"/>
	<path class="st2" d="M38,46.6h4.2c0.2,0,0.4-0.2,0.4-0.4c0-0.2-0.2-0.4-0.4-0.4H38c-0.2,0-0.4,0.2-0.4,0.4
		C37.6,46.4,37.8,46.6,38,46.6z"/>
	<path class="st2" d="M29,46.6h7.6c0.2,0,0.4-0.2,0.4-0.4c0-0.2-0.2-0.4-0.4-0.4H29c-0.2,0-0.4,0.2-0.4,0.4
		C28.5,46.4,28.7,46.6,29,46.6z"/>
	<path class="st2" d="M24.1,46.6h3.4c0.2,0,0.4-0.2,0.4-0.4c0-0.2-0.2-0.4-0.4-0.4h-3.4c-0.2,0-0.4,0.2-0.4,0.4
		C23.7,46.4,23.8,46.6,24.1,46.6z"/>
</g>
<g>
	<path class="st2" d="M30,49.1h-5.9c-0.2,0-0.4-0.2-0.4-0.4c0-0.2,0.2-0.4,0.4-0.4H30c0.2,0,0.4,0.2,0.4,0.4
		C30.4,48.9,30.2,49.1,30,49.1z"/>
	<path class="st2" d="M37.3,49.1h-5.9c-0.2,0-0.4-0.2-0.4-0.4c0-0.2,0.2-0.4,0.4-0.4h5.9c0.2,0,0.4,0.2,0.4,0.4
		C37.7,48.9,37.5,49.1,37.3,49.1z"/>
	<path class="st2" d="M44.7,49.1h-5.9c-0.2,0-0.4-0.2-0.4-0.4c0-0.2,0.2-0.4,0.4-0.4h5.9c0.2,0,0.4,0.2,0.4,0.4
		C45.1,48.9,44.9,49.1,44.7,49.1z"/>
	<path class="st2" d="M56.9,48.2h-5.4H51h-4.8c-0.2,0-0.4,0.2-0.4,0.4c0,0.2,0.2,0.4,0.4,0.4H51h0.5h5.4c0.2,0,0.4-0.2,0.4-0.4
		C57.4,48.4,57.2,48.2,56.9,48.2z"/>
	<g>
		<path class="st2" d="M54.4,50.7h-4.8c0,0,0,0,0,0s0,0,0,0h-5.9c-0.2,0-0.4,0.2-0.4,0.4c0,0.2,0.2,0.4,0.4,0.4h5.9c0,0,0,0,0,0
			c0,0,0,0,0,0h4.8c0.2,0,0.4-0.2,0.4-0.4C54.8,50.9,54.6,50.7,54.4,50.7z"/>
		<path class="st2" d="M36.4,51.6h5.9c0.2,0,0.4-0.2,0.4-0.4c0-0.2-0.2-0.4-0.4-0.4h-5.9c-0.2,0-0.4,0.2-0.4,0.4
			C36,51.4,36.1,51.6,36.4,51.6z"/>
		<path class="st2" d="M29,51.6h5.9c0.2,0,0.4-0.2,0.4-0.4c0-0.2-0.2-0.4-0.4-0.4H29c-0.2,0-0.4,0.2-0.4,0.4
			C28.5,51.4,28.7,51.6,29,51.6z"/>
		<path class="st2" d="M24.1,51.6h3.4c0.2,0,0.4-0.2,0.4-0.4c0-0.2-0.2-0.4-0.4-0.4h-3.4c-0.2,0-0.4,0.2-0.4,0.4
			C23.7,51.4,23.8,51.6,24.1,51.6z"/>
	</g>
	<g>
		<path class="st2" d="M30,54h-5.9c-0.2,0-0.4-0.2-0.4-0.4c0-0.2,0.2-0.4,0.4-0.4H30c0.2,0,0.4,0.2,0.4,0.4C30.4,53.8,30.2,54,30,54
			z"/>
		<path class="st2" d="M35.6,54h-4.2c-0.2,0-0.4-0.2-0.4-0.4c0-0.2,0.2-0.4,0.4-0.4h4.2c0.2,0,0.4,0.2,0.4,0.4
			C36,53.8,35.8,54,35.6,54z"/>
		<path class="st2" d="M44.7,54h-7.6c-0.2,0-0.4-0.2-0.4-0.4c0-0.2,0.2-0.4,0.4-0.4h7.6c0.2,0,0.4,0.2,0.4,0.4
			C45.1,53.8,44.9,54,44.7,54z"/>
		<path class="st2" d="M56.9,53.2h-7.3h-0.2h-3.1c-0.2,0-0.4,0.2-0.4,0.4c0,0.2,0.2,0.4,0.4,0.4h3.1h0.2h7.3c0.2,0,0.4-0.2,0.4-0.4
			C57.3,53.4,57.1,53.2,56.9,53.2z"/>
	</g>
	<g>
		<path class="st2" d="M43.7,56.5h5.9c0.2,0,0.4-0.2,0.4-0.4c0-0.2-0.2-0.4-0.4-0.4h-5.9c-0.2,0-0.4,0.2-0.4,0.4
			C43.3,56.4,43.5,56.5,43.7,56.5z"/>
		<path class="st2" d="M38,56.5h4.2c0.2,0,0.4-0.2,0.4-0.4c0-0.2-0.2-0.4-0.4-0.4H38c-0.2,0-0.4,0.2-0.4,0.4
			C37.6,56.4,37.8,56.5,38,56.5z"/>
		<path class="st2" d="M29,56.5h7.6c0.2,0,0.4-0.2,0.4-0.4c0-0.2-0.2-0.4-0.4-0.4H29c-0.2,0-0.4,0.2-0.4,0.4
			C28.5,56.4,28.7,56.5,29,56.5z"/>
		<path class="st2" d="M24.1,56.5h3.4c0.2,0,0.4-0.2,0.4-0.4c0-0.2-0.2-0.4-0.4-0.4h-3.4c-0.2,0-0.4,0.2-0.4,0.4
			C23.7,56.4,23.8,56.5,24.1,56.5z"/>
	</g>
</g>
<g>
	<g>
		<path class="st2" d="M30,59h-5.9c-0.2,0-0.4-0.2-0.4-0.4c0-0.2,0.2-0.4,0.4-0.4H30c0.2,0,0.4,0.2,0.4,0.4C30.4,58.8,30.2,59,30,59
			z"/>
		<path class="st2" d="M35.6,59h-4.2c-0.2,0-0.4-0.2-0.4-0.4c0-0.2,0.2-0.4,0.4-0.4h4.2c0.2,0,0.4,0.2,0.4,0.4
			C36,58.8,35.8,59,35.6,59z"/>
		<path class="st2" d="M44.7,59h-7.6c-0.2,0-0.4-0.2-0.4-0.4c0-0.2,0.2-0.4,0.4-0.4h7.6c0.2,0,0.4,0.2,0.4,0.4
			C45.1,58.8,44.9,59,44.7,59z"/>
		<path class="st2" d="M56.9,58.1h-7.3h-0.5h-2.9c-0.2,0-0.4,0.2-0.4,0.4c0,0.2,0.2,0.4,0.4,0.4h2.9h0.5h7.3c0.2,0,0.4-0.2,0.4-0.4
			C57.3,58.3,57.1,58.1,56.9,58.1z"/>
	</g>
	<g>
		<path class="st2" d="M43.7,61.5h5.9c0.2,0,0.4-0.2,0.4-0.4c0-0.2-0.2-0.4-0.4-0.4h-5.9c-0.2,0-0.4,0.2-0.4,0.4
			C43.3,61.3,43.5,61.5,43.7,61.5z"/>
		<path class="st2" d="M38,61.5h4.2c0.2,0,0.4-0.2,0.4-0.4c0-0.2-0.2-0.4-0.4-0.4H38c-0.2,0-0.4,0.2-0.4,0.4
			C37.6,61.3,37.8,61.5,38,61.5z"/>
		<path class="st2" d="M29,61.5h7.6c0.2,0,0.4-0.2,0.4-0.4c0-0.2-0.2-0.4-0.4-0.4H29c-0.2,0-0.4,0.2-0.4,0.4
			C28.5,61.3,28.7,61.5,29,61.5z"/>
		<path class="st2" d="M24.1,61.5h3.4c0.2,0,0.4-0.2,0.4-0.4c0-0.2-0.2-0.4-0.4-0.4h-3.4c-0.2,0-0.4,0.2-0.4,0.4
			C23.7,61.3,23.8,61.5,24.1,61.5z"/>
	</g>
</g>
<g>
	<path class="st2" d="M56.9,24.2H51c-0.2,0-0.4-0.2-0.4-0.4c0-0.2,0.2-0.4,0.4-0.4h5.9c0.2,0,0.4,0.2,0.4,0.4
		C57.3,24,57.1,24.2,56.9,24.2z"/>
	<path class="st2" d="M62.5,24.2h-4.2c-0.2,0-0.4-0.2-0.4-0.4c0-0.2,0.2-0.4,0.4-0.4h4.2c0.2,0,0.4,0.2,0.4,0.4
		C63,24,62.8,24.2,62.5,24.2z"/>
	<path class="st2" d="M71.6,24.2h-7.6c-0.2,0-0.4-0.2-0.4-0.4c0-0.2,0.2-0.4,0.4-0.4h7.6c0.2,0,0.4,0.2,0.4,0.4
		C72.1,24,71.9,24.2,71.6,24.2z"/>
	<path class="st2" d="M76.5,24.2h-3.4c-0.2,0-0.4-0.2-0.4-0.4c0-0.2,0.2-0.4,0.4-0.4h3.4c0.2,0,0.4,0.2,0.4,0.4
		C76.9,24,76.8,24.2,76.5,24.2z"/>
</g>
<g>
	<path class="st2" d="M70.6,26.7h5.9c0.2,0,0.4-0.2,0.4-0.4c0-0.2-0.2-0.4-0.4-0.4h-5.9c-0.2,0-0.4,0.2-0.4,0.4
		C70.2,26.5,70.4,26.7,70.6,26.7z"/>
	<path class="st2" d="M65,26.7h4.2c0.2,0,0.4-0.2,0.4-0.4c0-0.2-0.2-0.4-0.4-0.4H65c-0.2,0-0.4,0.2-0.4,0.4
		C64.6,26.5,64.8,26.7,65,26.7z"/>
	<path class="st2" d="M55.9,26.7h7.6c0.2,0,0.4-0.2,0.4-0.4c0-0.2-0.2-0.4-0.4-0.4h-7.6c-0.2,0-0.4,0.2-0.4,0.4
		C55.5,26.5,55.7,26.7,55.9,26.7z"/>
</g>
<g>
	<path class="st2" d="M64.2,29.2h-5.9c-0.2,0-0.4-0.2-0.4-0.4c0-0.2,0.2-0.4,0.4-0.4h5.9c0.2,0,0.4,0.2,0.4,0.4
		C64.7,29,64.5,29.2,64.2,29.2z"/>
	<path class="st2" d="M71.7,29.2h-5.9c-0.2,0-0.4-0.2-0.4-0.4c0-0.2,0.2-0.4,0.4-0.4h5.9c0.2,0,0.4,0.2,0.4,0.4
		C72.1,29,71.9,29.2,71.7,29.2z"/>
	<path class="st2" d="M76.5,29.2h-3.4c-0.2,0-0.4-0.2-0.4-0.4c0-0.2,0.2-0.4,0.4-0.4h3.4c0.2,0,0.4,0.2,0.4,0.4
		C77,29,76.8,29.2,76.5,29.2z"/>
	<g>
		<path class="st2" d="M70.6,31.6h5.9c0.2,0,0.4-0.2,0.4-0.4c0-0.2-0.2-0.4-0.4-0.4h-5.9c-0.2,0-0.4,0.2-0.4,0.4
			C70.2,31.4,70.4,31.6,70.6,31.6z"/>
		<path class="st2" d="M63.3,31.6h5.9c0.2,0,0.4-0.2,0.4-0.4c0-0.2-0.2-0.4-0.4-0.4h-5.9c-0.2,0-0.4,0.2-0.4,0.4
			C62.9,31.4,63.1,31.6,63.3,31.6z"/>
		<path class="st2" d="M55.9,31.6h5.9c0.2,0,0.4-0.2,0.4-0.4c0-0.2-0.2-0.4-0.4-0.4h-5.9c-0.2,0-0.4,0.2-0.4,0.4
			C55.5,31.4,55.7,31.6,55.9,31.6z"/>
	</g>
	<g>
		<path class="st2" d="M62.5,34.1h-4.2c-0.2,0-0.4-0.2-0.4-0.4c0-0.2,0.2-0.4,0.4-0.4h4.2c0.2,0,0.4,0.2,0.4,0.4
			C63,33.9,62.8,34.1,62.5,34.1z"/>
		<path class="st2" d="M71.6,34.1h-7.6c-0.2,0-0.4-0.2-0.4-0.4c0-0.2,0.2-0.4,0.4-0.4h7.6c0.2,0,0.4,0.2,0.4,0.4
			C72.1,33.9,71.9,34.1,71.6,34.1z"/>
		<path class="st2" d="M76.5,34.1h-3.4c-0.2,0-0.4-0.2-0.4-0.4c0-0.2,0.2-0.4,0.4-0.4h3.4c0.2,0,0.4,0.2,0.4,0.4
			C76.9,33.9,76.8,34.1,76.5,34.1z"/>
	</g>
	<g>
		<path class="st2" d="M70.6,36.6h5.9c0.2,0,0.4-0.2,0.4-0.4c0-0.2-0.2-0.4-0.4-0.4h-5.9c-0.2,0-0.4,0.2-0.4,0.4
			C70.2,36.4,70.4,36.6,70.6,36.6z"/>
		<path class="st2" d="M65,36.6h4.2c0.2,0,0.4-0.2,0.4-0.4c0-0.2-0.2-0.4-0.4-0.4H65c-0.2,0-0.4,0.2-0.4,0.4
			C64.6,36.4,64.8,36.6,65,36.6z"/>
		<path class="st2" d="M55.9,36.6h7.6c0.2,0,0.4-0.2,0.4-0.4c0-0.2-0.2-0.4-0.4-0.4h-7.6c-0.2,0-0.4,0.2-0.4,0.4
			C55.5,36.4,55.7,36.6,55.9,36.6z"/>
		<path class="st2" d="M51,36.6h3.4c0.2,0,0.4-0.2,0.4-0.4c0-0.2-0.2-0.4-0.4-0.4H51c-0.2,0-0.4,0.2-0.4,0.4
			C50.6,36.4,50.8,36.6,51,36.6z"/>
	</g>
</g>
<g>
	<g>
		<path class="st2" d="M62.5,39.1h-4.2c-0.2,0-0.4-0.2-0.4-0.4c0-0.2,0.2-0.4,0.4-0.4h4.2c0.2,0,0.4,0.2,0.4,0.4
			C63,38.9,62.8,39.1,62.5,39.1z"/>
		<path class="st2" d="M71.6,39.1h-7.6c-0.2,0-0.4-0.2-0.4-0.4c0-0.2,0.2-0.4,0.4-0.4h7.6c0.2,0,0.4,0.2,0.4,0.4
			C72.1,38.9,71.9,39.1,71.6,39.1z"/>
		<path class="st2" d="M76.5,39.1h-3.4c-0.2,0-0.4-0.2-0.4-0.4c0-0.2,0.2-0.4,0.4-0.4h3.4c0.2,0,0.4,0.2,0.4,0.4
			C76.9,38.9,76.8,39.1,76.5,39.1z"/>
	</g>
	<g>
		<path class="st2" d="M70.6,41.6h5.9c0.2,0,0.4-0.2,0.4-0.4c0-0.2-0.2-0.4-0.4-0.4h-5.9c-0.2,0-0.4,0.2-0.4,0.4
			C70.2,41.4,70.4,41.6,70.6,41.6z"/>
		<path class="st2" d="M65,41.6h4.2c0.2,0,0.4-0.2,0.4-0.4c0-0.2-0.2-0.4-0.4-0.4H65c-0.2,0-0.4,0.2-0.4,0.4
			C64.6,41.4,64.8,41.6,65,41.6z"/>
		<path class="st2" d="M55.9,41.6h7.6c0.2,0,0.4-0.2,0.4-0.4c0-0.2-0.2-0.4-0.4-0.4h-7.6c-0.2,0-0.4,0.2-0.4,0.4
			C55.5,41.4,55.7,41.6,55.9,41.6z"/>
		<path class="st2" d="M51,41.6h3.4c0.2,0,0.4-0.2,0.4-0.4c0-0.2-0.2-0.4-0.4-0.4H51c-0.2,0-0.4,0.2-0.4,0.4
			C50.6,41.4,50.8,41.6,51,41.6z"/>
	</g>
</g>
<g>
	<path class="st2" d="M49.6,24.2h-3.4c-0.2,0-0.4-0.2-0.4-0.4c0-0.2,0.2-0.4,0.4-0.4h3.4c0.2,0,0.4,0.2,0.4,0.4
		C50,24,49.8,24.2,49.6,24.2z"/>
</g>
<g>
	<path class="st2" d="M56.9,21.7H51c-0.2,0-0.4-0.2-0.4-0.4c0-0.2,0.2-0.4,0.4-0.4h5.9c0.2,0,0.4,0.2,0.4,0.4
		C57.3,21.5,57.1,21.7,56.9,21.7z"/>
	<path class="st2" d="M62.5,21.7h-4.2c-0.2,0-0.4-0.2-0.4-0.4c0-0.2,0.2-0.4,0.4-0.4h4.2c0.2,0,0.4,0.2,0.4,0.4
		C63,21.5,62.8,21.7,62.5,21.7z"/>
	<path class="st2" d="M71.6,21.7h-7.6c-0.2,0-0.4-0.2-0.4-0.4c0-0.2,0.2-0.4,0.4-0.4h7.6c0.2,0,0.4,0.2,0.4,0.4
		C72.1,21.5,71.9,21.7,71.6,21.7z"/>
	<path class="st2" d="M76.5,21.7h-3.4c-0.2,0-0.4-0.2-0.4-0.4c0-0.2,0.2-0.4,0.4-0.4h3.4c0.2,0,0.4,0.2,0.4,0.4
		C76.9,21.5,76.8,21.7,76.5,21.7z"/>
</g>
<g>
	<path class="st2" d="M49.6,21.7h-3.4c-0.2,0-0.4-0.2-0.4-0.4c0-0.2,0.2-0.4,0.4-0.4h3.4c0.2,0,0.4,0.2,0.4,0.4
		C50,21.5,49.8,21.7,49.6,21.7z"/>
</g>
<g>
	<path class="st2" d="M54.4,25.8h-2.9H51h-4.8c-0.2,0-0.4,0.2-0.4,0.4c0,0.2,0.2,0.4,0.4,0.4H51h0.5h2.9c0.2,0,0.4-0.2,0.4-0.4
		C54.8,26,54.6,25.8,54.4,25.8z"/>
</g>
<g>
	<path class="st2" d="M56.9,28.3h-5.4H51h-4.8c-0.2,0-0.4,0.2-0.4,0.4c0,0.2,0.2,0.4,0.4,0.4H51h0.5h5.4c0.2,0,0.4-0.2,0.4-0.4
		C57.4,28.5,57.2,28.3,56.9,28.3z"/>
	<g>
		<path class="st2" d="M54.4,30.8h-4.8c0,0,0,0,0,0s0,0,0,0h-3.4c-0.2,0-0.4,0.2-0.4,0.4c0,0.2,0.2,0.4,0.4,0.4h3.4c0,0,0,0,0,0
			s0,0,0,0h4.8c0.2,0,0.4-0.2,0.4-0.4C54.8,31,54.6,30.8,54.4,30.8z"/>
	</g>
	<g>
		<path class="st2" d="M56.9,33.3h-7.3h-0.2h-3.1c-0.2,0-0.4,0.2-0.4,0.4c0,0.2,0.2,0.4,0.4,0.4h3.1h0.2h7.3c0.2,0,0.4-0.2,0.4-0.4
			C57.3,33.5,57.1,33.3,56.9,33.3z"/>
	</g>
	<g>
		<path class="st2" d="M46.2,36.6h3.4c0.2,0,0.4-0.2,0.4-0.4c0-0.2-0.2-0.4-0.4-0.4h-3.4c-0.2,0-0.4,0.2-0.4,0.4
			C45.8,36.4,46,36.6,46.2,36.6z"/>
	</g>
</g>
<g>
	<g>
		<path class="st2" d="M56.9,38.2h-7.3h-0.5h-2.9c-0.2,0-0.4,0.2-0.4,0.4c0,0.2,0.2,0.4,0.4,0.4h2.9h0.5h7.3c0.2,0,0.4-0.2,0.4-0.4
			C57.3,38.4,57.1,38.2,56.9,38.2z"/>
	</g>
	<g>
		<path class="st2" d="M43.7,41.6h5.9c0.2,0,0.4-0.2,0.4-0.4c0-0.2-0.2-0.4-0.4-0.4h-5.9c-0.2,0-0.4,0.2-0.4,0.4
			C43.3,41.4,43.5,41.6,43.7,41.6z"/>
		<path class="st2" d="M38,41.6h4.2c0.2,0,0.4-0.2,0.4-0.4c0-0.2-0.2-0.4-0.4-0.4H38c-0.2,0-0.4,0.2-0.4,0.4
			C37.6,41.4,37.8,41.6,38,41.6z"/>
		<path class="st2" d="M29,41.6h7.6c0.2,0,0.4-0.2,0.4-0.4c0-0.2-0.2-0.4-0.4-0.4H29c-0.2,0-0.4,0.2-0.4,0.4
			C28.5,41.4,28.7,41.6,29,41.6z"/>
		<path class="st2" d="M24.1,41.6h3.4c0.2,0,0.4-0.2,0.4-0.4c0-0.2-0.2-0.4-0.4-0.4h-3.4c-0.2,0-0.4,0.2-0.4,0.4
			C23.7,41.4,23.8,41.6,24.1,41.6z"/>
	</g>
</g>
<path class="st2" d="M42.2,27.7l-7,9h-0.4l1.1-9l-7,9h-0.3l1.2-9.7c0-0.4,0.1-0.7,0.1-0.9c0-0.3-0.1-0.6-0.3-0.8s-0.6-0.3-1.2-0.3
	l0.1-0.3h5.2l-0.1,0.3c-0.7,0-1.2,0.1-1.4,0.3c-0.3,0.2-0.4,0.7-0.5,1.6l-0.8,6.3l5.3-6.8c0-0.1,0-0.2,0-0.3c0-0.3-0.1-0.6-0.3-0.7
	c-0.2-0.2-0.7-0.3-1.4-0.3l0.1-0.3H40l-0.1,0.3c-0.6,0-1.1,0.1-1.3,0.1c-0.2,0.1-0.3,0.2-0.4,0.3c-0.1,0.1-0.2,0.4-0.3,0.7
	c0,0.1-0.1,0.8-0.2,2c-0.1,1.2-0.4,2.9-0.7,5l4.4-5.6c0.5-0.6,0.8-1,0.9-1.3c0.1-0.2,0.2-0.5,0.2-0.6c0-0.2-0.1-0.3-0.2-0.4
	c-0.2-0.1-0.4-0.2-0.8-0.2l0.1-0.3h2.8v-1.6c0-1.3-1.1-2.4-2.4-2.4H26c-1.3,0-2.4,1.1-2.4,2.4v13.4c0,1.3,1.1,2.4,2.4,2.4h15.8
	c1.3,0,2.4-1.1,2.4-2.4V25.6c-0.2,0.1-0.4,0.3-0.7,0.6C43.3,26.3,42.8,26.9,42.2,27.7z"/>
<path class="st2" d="M44.2,24.9v0.7c0.1-0.1,0.2-0.1,0.3-0.2c0.3-0.1,0.6-0.2,1-0.2l0.1-0.3H44.2z"/>
<path class="st3" d="M11.5,81V68.1h3.9c3.5,0,4.1,1.5,4.1,4.3v4.3c0,2.8-0.6,4.4-4.2,4.3H11.5z M15.3,79.5c2.4,0,2.6-0.8,2.6-2.8
	v-4.3c0-2-0.2-2.8-2.6-2.8h-2.2v9.9H15.3z"/>
<path class="st3" d="M29.8,76.7c0,2.8-0.6,4.4-4.2,4.4c-3.6,0-4.2-1.5-4.2-4.4v-4.5c0-2.8,0.6-4.4,4.2-4.4c3.6,0,4.2,1.5,4.2,4.4
	V76.7z M28.2,72.2c0-2-0.2-2.9-2.6-2.9S23,70.2,23,72.2v4.5c0,2,0.2,2.9,2.6,2.9s2.6-0.8,2.6-2.9V72.2z"/>
<path class="st3" d="M38.4,71.7c0-1.6-0.3-2.3-2.5-2.3c-2.2,0-2.5,0.8-2.5,2.8v4.4c0,2,0.3,2.8,2.5,2.8c2.2,0,2.5-0.5,2.5-2.5H40
	c0,2.5-0.3,4-4,4c-3.8,0-4.1-1.5-4.1-4.4v-4.4c0-2.8,0.7-4.4,4.1-4.4c3.4,0,4,1.3,4,3.8H38.4z"/>
</svg>
