<?xml version="1.0" encoding="utf-8"?>
<!-- Generator: Adobe Illustrator 19.0.0, SVG Export Plug-In . SVG Version: 6.00 Build 0)  -->
<svg version="1.1" id="Layer_1" xmlns="http://www.w3.org/2000/svg" xmlns:xlink="http://www.w3.org/1999/xlink" x="0px" y="0px"
	 viewBox="0 0 90.9 92.2" style="enable-background:new 0 0 90.9 92.2;" xml:space="preserve">
<style type="text/css">
	.st0{fill:#FFFFFF;stroke:#BCBEC0;stroke-miterlimit:10;}
	.st1{fill:#BE1E2D;}
	.st2{fill:#A7A9AC;}
	.st3{fill:#939598;}
	.st4{fill:#FFFFFF;}
</style>
<path id="background_2_" class="st0" d="M90.4,66.9c0,1.3-0.9,2.9-2.1,3.6l-36,20.8c-1.1,0.7-3,0.7-4.1,0l-36-20.8
	c-1.1-0.7-2.1-2.3-2.1-3.6V25.3c0-1.3,0.9-2.9,2.1-3.6L48.3,1c1.1-0.7,3-0.7,4.1,0l36,20.8c1.1,0.7,2.1,2.3,2.1,3.6V66.9z"/>
<path id="name_x5F_bg_2_" class="st1" d="M51.5,82.1c0,1.4-1.2,2.6-2.6,2.6H2.6c-1.4,0-2.6-1.2-2.6-2.6V66.9c0-1.4,1.2-2.6,2.6-2.6
	h46.3c1.4,0,2.6,1.2,2.6,2.6V82.1z"/>
<path class="st2" d="M34.3,39.6c0,0.1-0.1,0.2-0.2,0.2h-9.9c-0.1,0-0.2-0.1-0.2-0.2v-9.9c0-0.1,0.1-0.2,0.2-0.2h9.9
	c0.1,0,0.2,0.1,0.2,0.2V39.6z"/>
<path class="st2" d="M29.8,34.5c-0.1-0.1-0.1-0.2,0-0.2l7-10.8c0.1-0.1,0.2-0.1,0.2,0l7,10.8c0.1,0.1,0.1,0.2,0,0.2H29.8z"/>
<circle class="st2" cx="43.7" cy="34.5" r="5.6"/>
<path id="jpg_x5F_view_2_1_" class="st3" d="M41.1,29.6c-1.8,0.9-3,2.8-3,4.9l0,0h6c0.1-0.1,0.1-0.2,0-0.2L41.1,29.6z"/>
<path class="st3" d="M56.9,21.7H51c-0.2,0-0.4-0.2-0.4-0.4c0-0.2,0.2-0.4,0.4-0.4h5.9c0.2,0,0.4,0.2,0.4,0.4
	C57.4,21.5,57.2,21.7,56.9,21.7z"/>
<path class="st3" d="M64.2,21.7h-5.9c-0.2,0-0.4-0.2-0.4-0.4c0-0.2,0.2-0.4,0.4-0.4h5.9c0.2,0,0.4,0.2,0.4,0.4
	C64.7,21.5,64.5,21.7,64.2,21.7z"/>
<path class="st3" d="M71.7,21.7h-5.9c-0.2,0-0.4-0.2-0.4-0.4c0-0.2,0.2-0.4,0.4-0.4h5.9c0.2,0,0.4,0.2,0.4,0.4
	C72.1,21.5,71.9,21.7,71.7,21.7z"/>
<path class="st3" d="M76.5,21.7h-3.4c-0.2,0-0.4-0.2-0.4-0.4c0-0.2,0.2-0.4,0.4-0.4h3.4c0.2,0,0.4,0.2,0.4,0.4
	C77,21.5,76.8,21.7,76.5,21.7z"/>
<path class="st3" d="M70.6,24.2h5.9c0.2,0,0.4-0.2,0.4-0.4c0-0.2-0.2-0.4-0.4-0.4h-5.9c-0.2,0-0.4,0.2-0.4,0.4
	C70.2,24,70.4,24.2,70.6,24.2z"/>
<path class="st3" d="M63.3,24.2h5.9c0.2,0,0.4-0.2,0.4-0.4c0-0.2-0.2-0.4-0.4-0.4h-5.9c-0.2,0-0.4,0.2-0.4,0.4
	C62.9,24,63.1,24.2,63.3,24.2z"/>
<path class="st3" d="M55.9,24.2h5.9c0.2,0,0.4-0.2,0.4-0.4c0-0.2-0.2-0.4-0.4-0.4h-5.9c-0.2,0-0.4,0.2-0.4,0.4
	C55.5,24,55.7,24.2,55.9,24.2z"/>
<path class="st3" d="M51,24.2h3.4c0.2,0,0.4-0.2,0.4-0.4c0-0.2-0.2-0.4-0.4-0.4H51c-0.2,0-0.4,0.2-0.4,0.4
	C50.6,24,50.8,24.2,51,24.2z"/>
<path class="st3" d="M56.9,26.7H51c-0.2,0-0.4-0.2-0.4-0.4c0-0.2,0.2-0.4,0.4-0.4h5.9c0.2,0,0.4,0.2,0.4,0.4
	C57.3,26.5,57.1,26.7,56.9,26.7z"/>
<path class="st3" d="M62.6,26.7h-4.2c-0.2,0-0.4-0.2-0.4-0.4c0-0.2,0.2-0.4,0.4-0.4h4.2c0.2,0,0.4,0.2,0.4,0.4
	C63,26.5,62.8,26.7,62.6,26.7z"/>
<path class="st3" d="M71.6,26.7h-7.6c-0.2,0-0.4-0.2-0.4-0.4c0-0.2,0.2-0.4,0.4-0.4h7.6c0.2,0,0.4,0.2,0.4,0.4
	C72.1,26.5,71.9,26.7,71.6,26.7z"/>
<path class="st3" d="M76.5,26.7h-3.4c-0.2,0-0.4-0.2-0.4-0.4c0-0.2,0.2-0.4,0.4-0.4h3.4c0.2,0,0.4,0.2,0.4,0.4
	C76.9,26.5,76.8,26.7,76.5,26.7z"/>
<path class="st3" d="M70.6,29.2h5.9c0.2,0,0.4-0.2,0.4-0.4c0-0.2-0.2-0.4-0.4-0.4h-5.9c-0.2,0-0.4,0.2-0.4,0.4
	C70.2,29,70.4,29.2,70.6,29.2z"/>
<path class="st3" d="M65,29.2h4.2c0.2,0,0.4-0.2,0.4-0.4c0-0.2-0.2-0.4-0.4-0.4H65c-0.2,0-0.4,0.2-0.4,0.4
	C64.6,29,64.8,29.2,65,29.2z"/>
<path class="st3" d="M55.9,29.2h7.6c0.2,0,0.4-0.2,0.4-0.4c0-0.2-0.2-0.4-0.4-0.4h-7.6c-0.2,0-0.4,0.2-0.4,0.4
	C55.5,29,55.7,29.2,55.9,29.2z"/>
<path class="st3" d="M51,29.2h3.4c0.2,0,0.4-0.2,0.4-0.4c0-0.2-0.2-0.4-0.4-0.4H51c-0.2,0-0.4,0.2-0.4,0.4
	C50.6,29,50.8,29.2,51,29.2z"/>
<path class="st3" d="M56.9,31.7H51c-0.2,0-0.4-0.2-0.4-0.4s0.2-0.4,0.4-0.4h5.9c0.2,0,0.4,0.2,0.4,0.4S57.2,31.7,56.9,31.7z"/>
<path class="st3" d="M64.2,31.7h-5.9c-0.2,0-0.4-0.2-0.4-0.4s0.2-0.4,0.4-0.4h5.9c0.2,0,0.4,0.2,0.4,0.4S64.5,31.7,64.2,31.7z"/>
<path class="st3" d="M71.7,31.7h-5.9c-0.2,0-0.4-0.2-0.4-0.4s0.2-0.4,0.4-0.4h5.9c0.2,0,0.4,0.2,0.4,0.4S71.9,31.7,71.7,31.7z"/>
<path class="st3" d="M76.5,31.7h-3.4c-0.2,0-0.4-0.2-0.4-0.4s0.2-0.4,0.4-0.4h3.4c0.2,0,0.4,0.2,0.4,0.4S76.8,31.7,76.5,31.7z"/>
<g>
	<path class="st3" d="M70.6,34.1h5.9c0.2,0,0.4-0.2,0.4-0.4c0-0.2-0.2-0.4-0.4-0.4h-5.9c-0.2,0-0.4,0.2-0.4,0.4
		C70.2,34,70.4,34.1,70.6,34.1z"/>
	<path class="st3" d="M63.3,34.1h5.9c0.2,0,0.4-0.2,0.4-0.4c0-0.2-0.2-0.4-0.4-0.4h-5.9c-0.2,0-0.4,0.2-0.4,0.4
		C62.9,34,63.1,34.1,63.3,34.1z"/>
	<path class="st3" d="M55.9,34.1h5.9c0.2,0,0.4-0.2,0.4-0.4c0-0.2-0.2-0.4-0.4-0.4h-5.9c-0.2,0-0.4,0.2-0.4,0.4
		C55.5,34,55.7,34.1,55.9,34.1z"/>
	<path class="st3" d="M51,34.1h3.4c0.2,0,0.4-0.2,0.4-0.4c0-0.2-0.2-0.4-0.4-0.4H51c-0.2,0-0.4,0.2-0.4,0.4
		C50.6,34,50.8,34.1,51,34.1z"/>
</g>
<g>
	<path class="st3" d="M56.9,36.6H51c-0.2,0-0.4-0.2-0.4-0.4c0-0.2,0.2-0.4,0.4-0.4h5.9c0.2,0,0.4,0.2,0.4,0.4
		C57.3,36.4,57.1,36.6,56.9,36.6z"/>
	<path class="st3" d="M62.6,36.6h-4.2c-0.2,0-0.4-0.2-0.4-0.4c0-0.2,0.2-0.4,0.4-0.4h4.2c0.2,0,0.4,0.2,0.4,0.4
		C63,36.4,62.8,36.6,62.6,36.6z"/>
	<path class="st3" d="M71.6,36.6h-7.6c-0.2,0-0.4-0.2-0.4-0.4c0-0.2,0.2-0.4,0.4-0.4h7.6c0.2,0,0.4,0.2,0.4,0.4
		C72.1,36.4,71.9,36.6,71.6,36.6z"/>
	<path class="st3" d="M76.5,36.6h-3.4c-0.2,0-0.4-0.2-0.4-0.4c0-0.2,0.2-0.4,0.4-0.4h3.4c0.2,0,0.4,0.2,0.4,0.4
		C76.9,36.4,76.8,36.6,76.5,36.6z"/>
</g>
<g>
	<path class="st3" d="M70.6,39.1h5.9c0.2,0,0.4-0.2,0.4-0.4c0-0.2-0.2-0.4-0.4-0.4h-5.9c-0.2,0-0.4,0.2-0.4,0.4
		C70.2,39,70.4,39.1,70.6,39.1z"/>
	<path class="st3" d="M65,39.1h4.2c0.2,0,0.4-0.2,0.4-0.4c0-0.2-0.2-0.4-0.4-0.4H65c-0.2,0-0.4,0.2-0.4,0.4
		C64.6,39,64.8,39.1,65,39.1z"/>
	<path class="st3" d="M55.9,39.1h7.6c0.2,0,0.4-0.2,0.4-0.4c0-0.2-0.2-0.4-0.4-0.4h-7.6c-0.2,0-0.4,0.2-0.4,0.4
		C55.5,39,55.7,39.1,55.9,39.1z"/>
	<path class="st3" d="M51,39.1h3.4c0.2,0,0.4-0.2,0.4-0.4c0-0.2-0.2-0.4-0.4-0.4H51c-0.2,0-0.4,0.2-0.4,0.4
		C50.6,39,50.8,39.1,51,39.1z"/>
</g>
<path class="st3" d="M70.6,41.6h5.9c0.2,0,0.4-0.2,0.4-0.4c0-0.2-0.2-0.4-0.4-0.4h-5.9c-0.2,0-0.4,0.2-0.4,0.4
	C70.2,41.4,70.4,41.6,70.6,41.6z"/>
<path class="st3" d="M63.3,41.6h5.9c0.2,0,0.4-0.2,0.4-0.4c0-0.2-0.2-0.4-0.4-0.4h-5.9c-0.2,0-0.4,0.2-0.4,0.4
	C62.9,41.4,63.1,41.6,63.3,41.6z"/>
<path class="st3" d="M55.9,41.6h5.9c0.2,0,0.4-0.2,0.4-0.4c0-0.2-0.2-0.4-0.4-0.4h-5.9c-0.2,0-0.4,0.2-0.4,0.4
	C55.5,41.4,55.7,41.6,55.9,41.6z"/>
<path class="st3" d="M51,41.6h3.4c0.2,0,0.4-0.2,0.4-0.4c0-0.2-0.2-0.4-0.4-0.4H51c-0.2,0-0.4,0.2-0.4,0.4
	C50.6,41.4,50.8,41.6,51,41.6z"/>
<path class="st3" d="M56.9,44.1H51c-0.2,0-0.4-0.2-0.4-0.4c0-0.2,0.2-0.4,0.4-0.4h5.9c0.2,0,0.4,0.2,0.4,0.4
	C57.3,43.9,57.1,44.1,56.9,44.1z"/>
<path class="st3" d="M62.6,44.1h-4.2c-0.2,0-0.4-0.2-0.4-0.4c0-0.2,0.2-0.4,0.4-0.4h4.2c0.2,0,0.4,0.2,0.4,0.4
	C63,43.9,62.8,44.1,62.6,44.1z"/>
<path class="st3" d="M71.6,44.1h-7.6c-0.2,0-0.4-0.2-0.4-0.4c0-0.2,0.2-0.4,0.4-0.4h7.6c0.2,0,0.4,0.2,0.4,0.4
	C72.1,43.9,71.9,44.1,71.6,44.1z"/>
<path class="st3" d="M76.5,44.1h-3.4c-0.2,0-0.4-0.2-0.4-0.4c0-0.2,0.2-0.4,0.4-0.4h3.4c0.2,0,0.4,0.2,0.4,0.4
	C76.9,43.9,76.8,44.1,76.5,44.1z"/>
<path class="st3" d="M70.6,46.6h5.9c0.2,0,0.4-0.2,0.4-0.4c0-0.2-0.2-0.4-0.4-0.4h-5.9c-0.2,0-0.4,0.2-0.4,0.4
	C70.2,46.4,70.4,46.6,70.6,46.6z"/>
<path class="st3" d="M65,46.6h4.2c0.2,0,0.4-0.2,0.4-0.4c0-0.2-0.2-0.4-0.4-0.4H65c-0.2,0-0.4,0.2-0.4,0.4
	C64.6,46.4,64.8,46.6,65,46.6z"/>
<path class="st3" d="M55.9,46.6h7.6c0.2,0,0.4-0.2,0.4-0.4c0-0.2-0.2-0.4-0.4-0.4h-7.6c-0.2,0-0.4,0.2-0.4,0.4
	C55.5,46.4,55.7,46.6,55.9,46.6z"/>
<path class="st3" d="M64.2,49.1h-5.9c-0.2,0-0.4-0.2-0.4-0.4c0-0.2,0.2-0.4,0.4-0.4h5.9c0.2,0,0.4,0.2,0.4,0.4
	C64.7,48.9,64.5,49.1,64.2,49.1z"/>
<path class="st3" d="M71.7,49.1h-5.9c-0.2,0-0.4-0.2-0.4-0.4c0-0.2,0.2-0.4,0.4-0.4h5.9c0.2,0,0.4,0.2,0.4,0.4
	C72.1,48.9,71.9,49.1,71.7,49.1z"/>
<path class="st3" d="M76.5,49.1h-3.4c-0.2,0-0.4-0.2-0.4-0.4c0-0.2,0.2-0.4,0.4-0.4h3.4c0.2,0,0.4,0.2,0.4,0.4
	C77,48.9,76.8,49.1,76.5,49.1z"/>
<g>
	<path class="st3" d="M70.6,51.6h5.9c0.2,0,0.4-0.2,0.4-0.4c0-0.2-0.2-0.4-0.4-0.4h-5.9c-0.2,0-0.4,0.2-0.4,0.4
		C70.2,51.4,70.4,51.6,70.6,51.6z"/>
	<path class="st3" d="M63.3,51.6h5.9c0.2,0,0.4-0.2,0.4-0.4c0-0.2-0.2-0.4-0.4-0.4h-5.9c-0.2,0-0.4,0.2-0.4,0.4
		C62.9,51.4,63.1,51.6,63.3,51.6z"/>
	<path class="st3" d="M55.9,51.6h5.9c0.2,0,0.4-0.2,0.4-0.4c0-0.2-0.2-0.4-0.4-0.4h-5.9c-0.2,0-0.4,0.2-0.4,0.4
		C55.5,51.4,55.7,51.6,55.9,51.6z"/>
</g>
<g>
	<path class="st3" d="M62.6,54h-4.2c-0.2,0-0.4-0.2-0.4-0.4c0-0.2,0.2-0.4,0.4-0.4h4.2c0.2,0,0.4,0.2,0.4,0.4
		C63,53.8,62.8,54,62.6,54z"/>
	<path class="st3" d="M71.6,54h-7.6c-0.2,0-0.4-0.2-0.4-0.4c0-0.2,0.2-0.4,0.4-0.4h7.6c0.2,0,0.4,0.2,0.4,0.4
		C72.1,53.8,71.9,54,71.6,54z"/>
	<path class="st3" d="M76.5,54h-3.4c-0.2,0-0.4-0.2-0.4-0.4c0-0.2,0.2-0.4,0.4-0.4h3.4c0.2,0,0.4,0.2,0.4,0.4
		C76.9,53.8,76.8,54,76.5,54z"/>
</g>
<g>
	<path class="st3" d="M70.6,56.5h5.9c0.2,0,0.4-0.2,0.4-0.4c0-0.2-0.2-0.4-0.4-0.4h-5.9c-0.2,0-0.4,0.2-0.4,0.4
		C70.2,56.4,70.4,56.5,70.6,56.5z"/>
	<path class="st3" d="M65,56.5h4.2c0.2,0,0.4-0.2,0.4-0.4c0-0.2-0.2-0.4-0.4-0.4H65c-0.2,0-0.4,0.2-0.4,0.4
		C64.6,56.4,64.8,56.5,65,56.5z"/>
	<path class="st3" d="M55.9,56.5h7.6c0.2,0,0.4-0.2,0.4-0.4c0-0.2-0.2-0.4-0.4-0.4h-7.6c-0.2,0-0.4,0.2-0.4,0.4
		C55.5,56.4,55.7,56.5,55.9,56.5z"/>
	<path class="st3" d="M51,56.5h3.4c0.2,0,0.4-0.2,0.4-0.4c0-0.2-0.2-0.4-0.4-0.4H51c-0.2,0-0.4,0.2-0.4,0.4
		C50.6,56.4,50.8,56.5,51,56.5z"/>
</g>
<g>
	<path class="st3" d="M62.6,59h-4.2c-0.2,0-0.4-0.2-0.4-0.4c0-0.2,0.2-0.4,0.4-0.4h4.2c0.2,0,0.4,0.2,0.4,0.4
		C63,58.8,62.8,59,62.6,59z"/>
	<path class="st3" d="M71.6,59h-7.6c-0.2,0-0.4-0.2-0.4-0.4c0-0.2,0.2-0.4,0.4-0.4h7.6c0.2,0,0.4,0.2,0.4,0.4
		C72.1,58.8,71.9,59,71.6,59z"/>
	<path class="st3" d="M76.5,59h-3.4c-0.2,0-0.4-0.2-0.4-0.4c0-0.2,0.2-0.4,0.4-0.4h3.4c0.2,0,0.4,0.2,0.4,0.4
		C76.9,58.8,76.8,59,76.5,59z"/>
</g>
<g>
	<path class="st3" d="M70.6,61.5h5.9c0.2,0,0.4-0.2,0.4-0.4c0-0.2-0.2-0.4-0.4-0.4h-5.9c-0.2,0-0.4,0.2-0.4,0.4
		C70.2,61.3,70.4,61.5,70.6,61.5z"/>
	<path class="st3" d="M65,61.5h4.2c0.2,0,0.4-0.2,0.4-0.4c0-0.2-0.2-0.4-0.4-0.4H65c-0.2,0-0.4,0.2-0.4,0.4
		C64.6,61.3,64.8,61.5,65,61.5z"/>
	<path class="st3" d="M55.9,61.5h7.6c0.2,0,0.4-0.2,0.4-0.4c0-0.2-0.2-0.4-0.4-0.4h-7.6c-0.2,0-0.4,0.2-0.4,0.4
		C55.5,61.3,55.7,61.5,55.9,61.5z"/>
	<path class="st3" d="M51,61.5h3.4c0.2,0,0.4-0.2,0.4-0.4c0-0.2-0.2-0.4-0.4-0.4H51c-0.2,0-0.4,0.2-0.4,0.4
		C50.6,61.3,50.8,61.5,51,61.5z"/>
</g>
<path class="st3" d="M30,44.1h-5.9c-0.2,0-0.4-0.2-0.4-0.4c0-0.2,0.2-0.4,0.4-0.4H30c0.2,0,0.4,0.2,0.4,0.4
	C30.4,43.9,30.2,44.1,30,44.1z"/>
<path class="st3" d="M35.6,44.1h-4.2c-0.2,0-0.4-0.2-0.4-0.4c0-0.2,0.2-0.4,0.4-0.4h4.2c0.2,0,0.4,0.2,0.4,0.4
	C36,43.9,35.8,44.1,35.6,44.1z"/>
<path class="st3" d="M44.7,44.1h-7.6c-0.2,0-0.4-0.2-0.4-0.4c0-0.2,0.2-0.4,0.4-0.4h7.6c0.2,0,0.4,0.2,0.4,0.4
	C45.1,43.9,44.9,44.1,44.7,44.1z"/>
<path class="st3" d="M49.6,44.1h-3.4c-0.2,0-0.4-0.2-0.4-0.4c0-0.2,0.2-0.4,0.4-0.4h3.4c0.2,0,0.4,0.2,0.4,0.4
	C50,43.9,49.8,44.1,49.6,44.1z"/>
<path class="st3" d="M54.4,45.8h-2.9H51h-7.3c-0.2,0-0.4,0.2-0.4,0.4c0,0.2,0.2,0.4,0.4,0.4H51h0.5h2.9c0.2,0,0.4-0.2,0.4-0.4
	C54.8,46,54.6,45.8,54.4,45.8z"/>
<path class="st3" d="M38,46.6h4.2c0.2,0,0.4-0.2,0.4-0.4c0-0.2-0.2-0.4-0.4-0.4H38c-0.2,0-0.4,0.2-0.4,0.4
	C37.6,46.4,37.8,46.6,38,46.6z"/>
<path class="st3" d="M29,46.6h7.6c0.2,0,0.4-0.2,0.4-0.4c0-0.2-0.2-0.4-0.4-0.4H29c-0.2,0-0.4,0.2-0.4,0.4
	C28.5,46.4,28.7,46.6,29,46.6z"/>
<path class="st3" d="M24.1,46.6h3.4c0.2,0,0.4-0.2,0.4-0.4c0-0.2-0.2-0.4-0.4-0.4h-3.4c-0.2,0-0.4,0.2-0.4,0.4
	C23.7,46.4,23.8,46.6,24.1,46.6z"/>
<path class="st3" d="M30,49.1h-5.9c-0.2,0-0.4-0.2-0.4-0.4c0-0.2,0.2-0.4,0.4-0.4H30c0.2,0,0.4,0.2,0.4,0.4
	C30.4,48.9,30.2,49.1,30,49.1z"/>
<path class="st3" d="M37.3,49.1h-5.9c-0.2,0-0.4-0.2-0.4-0.4c0-0.2,0.2-0.4,0.4-0.4h5.9c0.2,0,0.4,0.2,0.4,0.4
	C37.7,48.9,37.5,49.1,37.3,49.1z"/>
<path class="st3" d="M44.7,49.1h-5.9c-0.2,0-0.4-0.2-0.4-0.4c0-0.2,0.2-0.4,0.4-0.4h5.9c0.2,0,0.4,0.2,0.4,0.4
	C45.1,48.9,44.9,49.1,44.7,49.1z"/>
<path class="st3" d="M56.9,48.2h-5.4H51h-4.8c-0.2,0-0.4,0.2-0.4,0.4c0,0.2,0.2,0.4,0.4,0.4H51h0.5h5.4c0.2,0,0.4-0.2,0.4-0.4
	C57.4,48.4,57.2,48.2,56.9,48.2z"/>
<g>
	<path class="st3" d="M54.4,50.7h-4.8c0,0,0,0,0,0c0,0,0,0,0,0h-5.9c-0.2,0-0.4,0.2-0.4,0.4c0,0.2,0.2,0.4,0.4,0.4h5.9c0,0,0,0,0,0
		c0,0,0,0,0,0h4.8c0.2,0,0.4-0.2,0.4-0.4C54.8,50.9,54.6,50.7,54.4,50.7z"/>
	<path class="st3" d="M36.4,51.6h5.9c0.2,0,0.4-0.2,0.4-0.4c0-0.2-0.2-0.4-0.4-0.4h-5.9c-0.2,0-0.4,0.2-0.4,0.4
		C36,51.4,36.1,51.6,36.4,51.6z"/>
	<path class="st3" d="M29,51.6h5.9c0.2,0,0.4-0.2,0.4-0.4c0-0.2-0.2-0.4-0.4-0.4H29c-0.2,0-0.4,0.2-0.4,0.4
		C28.5,51.4,28.7,51.6,29,51.6z"/>
	<path class="st3" d="M24.1,51.6h3.4c0.2,0,0.4-0.2,0.4-0.4c0-0.2-0.2-0.4-0.4-0.4h-3.4c-0.2,0-0.4,0.2-0.4,0.4
		C23.7,51.4,23.8,51.6,24.1,51.6z"/>
</g>
<g>
	<path class="st3" d="M30,54h-5.9c-0.2,0-0.4-0.2-0.4-0.4c0-0.2,0.2-0.4,0.4-0.4H30c0.2,0,0.4,0.2,0.4,0.4C30.4,53.8,30.2,54,30,54z
		"/>
	<path class="st3" d="M35.6,54h-4.2c-0.2,0-0.4-0.2-0.4-0.4c0-0.2,0.2-0.4,0.4-0.4h4.2c0.2,0,0.4,0.2,0.4,0.4
		C36,53.8,35.8,54,35.6,54z"/>
	<path class="st3" d="M44.7,54h-7.6c-0.2,0-0.4-0.2-0.4-0.4c0-0.2,0.2-0.4,0.4-0.4h7.6c0.2,0,0.4,0.2,0.4,0.4
		C45.1,53.8,44.9,54,44.7,54z"/>
	<path class="st3" d="M56.9,53.2h-7.3h-0.2h-3.1c-0.2,0-0.4,0.2-0.4,0.4c0,0.2,0.2,0.4,0.4,0.4h3.1h0.2h7.3c0.2,0,0.4-0.2,0.4-0.4
		C57.3,53.4,57.1,53.2,56.9,53.2z"/>
</g>
<g>
	<path class="st3" d="M43.7,56.5h5.9c0.2,0,0.4-0.2,0.4-0.4c0-0.2-0.2-0.4-0.4-0.4h-5.9c-0.2,0-0.4,0.2-0.4,0.4
		C43.3,56.4,43.5,56.5,43.7,56.5z"/>
	<path class="st3" d="M38,56.5h4.2c0.2,0,0.4-0.2,0.4-0.4c0-0.2-0.2-0.4-0.4-0.4H38c-0.2,0-0.4,0.2-0.4,0.4
		C37.6,56.4,37.8,56.5,38,56.5z"/>
	<path class="st3" d="M29,56.5h7.6c0.2,0,0.4-0.2,0.4-0.4c0-0.2-0.2-0.4-0.4-0.4H29c-0.2,0-0.4,0.2-0.4,0.4
		C28.5,56.4,28.7,56.5,29,56.5z"/>
	<path class="st3" d="M24.1,56.5h3.4c0.2,0,0.4-0.2,0.4-0.4c0-0.2-0.2-0.4-0.4-0.4h-3.4c-0.2,0-0.4,0.2-0.4,0.4
		C23.7,56.4,23.8,56.5,24.1,56.5z"/>
</g>
<g>
	<path class="st3" d="M30,59h-5.9c-0.2,0-0.4-0.2-0.4-0.4c0-0.2,0.2-0.4,0.4-0.4H30c0.2,0,0.4,0.2,0.4,0.4C30.4,58.8,30.2,59,30,59z
		"/>
	<path class="st3" d="M35.6,59h-4.2c-0.2,0-0.4-0.2-0.4-0.4c0-0.2,0.2-0.4,0.4-0.4h4.2c0.2,0,0.4,0.2,0.4,0.4
		C36,58.8,35.8,59,35.6,59z"/>
	<path class="st3" d="M44.7,59h-7.6c-0.2,0-0.4-0.2-0.4-0.4c0-0.2,0.2-0.4,0.4-0.4h7.6c0.2,0,0.4,0.2,0.4,0.4
		C45.1,58.8,44.9,59,44.7,59z"/>
	<path class="st3" d="M56.9,58.1h-7.3h-0.5h-2.9c-0.2,0-0.4,0.2-0.4,0.4c0,0.2,0.2,0.4,0.4,0.4h2.9h0.5h7.3c0.2,0,0.4-0.2,0.4-0.4
		C57.3,58.3,57.1,58.1,56.9,58.1z"/>
</g>
<g>
	<path class="st3" d="M43.7,61.5h5.9c0.2,0,0.4-0.2,0.4-0.4c0-0.2-0.2-0.4-0.4-0.4h-5.9c-0.2,0-0.4,0.2-0.4,0.4
		C43.3,61.3,43.5,61.5,43.7,61.5z"/>
	<path class="st3" d="M38,61.5h4.2c0.2,0,0.4-0.2,0.4-0.4c0-0.2-0.2-0.4-0.4-0.4H38c-0.2,0-0.4,0.2-0.4,0.4
		C37.6,61.3,37.8,61.5,38,61.5z"/>
	<path class="st3" d="M29,61.5h7.6c0.2,0,0.4-0.2,0.4-0.4c0-0.2-0.2-0.4-0.4-0.4H29c-0.2,0-0.4,0.2-0.4,0.4
		C28.5,61.3,28.7,61.5,29,61.5z"/>
	<path class="st3" d="M24.1,61.5h3.4c0.2,0,0.4-0.2,0.4-0.4c0-0.2-0.2-0.4-0.4-0.4h-3.4c-0.2,0-0.4,0.2-0.4,0.4
		C23.7,61.3,23.8,61.5,24.1,61.5z"/>
</g>
<path class="st4" d="M17.2,68c2.3,0,3.7,0.9,3.7,3.5v1.4c0,2.7-1,3.7-3.7,3.7h-1.9V81h-1.6V68L17.2,68z M15.3,69.5v5.6h1.9
	c1.4,0,2.1-0.4,2.1-2.2v-1.4c0-1.8-0.7-1.9-2.1-2H15.3z"/>
<path class="st4" d="M22.8,80.9V68h3.9c3.5,0,4.1,1.5,4.1,4.3v4.3c0,2.8-0.6,4.4-4.2,4.3H22.8z M26.6,79.4c2.4,0,2.6-0.8,2.6-2.8
	v-4.3c0-2-0.2-2.8-2.6-2.8h-2.2v9.9H26.6z"/>
<path class="st4" d="M34.4,69.5v4H39v1.5h-4.6v6h-1.6V68h6.9v1.5H34.4z"/>
</svg>
