<?xml version="1.0" encoding="utf-8"?>
<!-- Generator: Adobe Illustrator 19.0.0, SVG Export Plug-In . SVG Version: 6.00 Build 0)  -->
<svg version="1.1" id="Layer_1" xmlns="http://www.w3.org/2000/svg" xmlns:xlink="http://www.w3.org/1999/xlink" x="0px" y="0px"
	 viewBox="409.6 209.9 80.4 80.4" style="enable-background:new 409.6 209.9 80.4 80.4;" xml:space="preserve">
<style type="text/css">
	.st0{fill:#211F20;}
	.st1{fill:#FFFFFF;}
</style>
<path id="XMLID_3_" class="st0" d="M449.8,290.3c22.2,0,40.2-18,40.2-40.2s-18-40.2-40.2-40.2s-40.2,18-40.2,40.2
	C409.7,272.3,427.7,290.3,449.8,290.3"/>
<path class="st1" d="M446.5,256.6c1.2,0,2.2-0.6,3.6-2.6l1.4-8.2c-0.5-0.9-1.4-1.6-2.6-1.6c-3.4,0-5.5,5.1-5.5,8.6
	C443.5,255.2,444.6,256.6,446.5,256.6 M451.6,222.3c14.4,0,23.6,9.9,23.6,23.8c0,12.1-8.3,18-15.4,18c-3.8,0-7-1.8-7.8-4.9h-0.1
	c-1.7,2.6-5.2,4.3-7.8,4.3c-5.3,0-8.8-4-8.8-10c0-8.3,6-16.2,13.4-16.2c2.1,0,3.8,0.9,4.8,3.2h0.1l1-2.7h6.8l-3.1,14.8
	c-0.8,3.2,0.1,4.8,2.7,4.8c3.9,0,7.4-4.4,7.4-11c0-8.8-4.5-17.4-17.7-17.4c-10.9,0-21.8,9.3-21.8,23.8c0,12.8,9.1,18.6,18.8,18.6
	c3.1,0,7-1,9.6-2.3l2.3,6c-4,2.1-8.2,3-12.8,3c-13.1,0-25.3-7.8-25.3-24.9C421.5,234.5,435.1,222.3,451.6,222.3"/>
</svg>
