<?xml version="1.0" encoding="utf-8"?>
<!-- Generator: Adobe Illustrator 19.0.0, SVG Export Plug-In . SVG Version: 6.00 Build 0)  -->
<svg version="1.1" id="Layer_1" xmlns="http://www.w3.org/2000/svg" xmlns:xlink="http://www.w3.org/1999/xlink" x="0px" y="0px"
	 viewBox="409.6 209.9 80.4 80.4" style="enable-background:new 409.6 209.9 80.4 80.4;" xml:space="preserve">
<style type="text/css">
	.st0{fill:#211F20;}
	.st1{fill:#FFFFFF;}
</style>
<path id="XMLID_2_" class="st0" d="M449.8,290.3c22.2,0,40.2-18,40.2-40.2s-18-40.2-40.2-40.2s-40.2,18-40.2,40.2
	C409.7,272.3,427.7,290.3,449.8,290.3"/>
<path id="XMLID_1_" class="st1" d="M471.4,264.7l-0.3-0.6c-0.8-1.9-10.8-4.8-11.6-4.9l-0.6,0.1c-1.2,0.2-2.6,1.3-5.2,3.6
	c-0.5,0.5-1.2,0.6-1.9,0.2c-3.4-1.9-7.6-5.7-9.7-8.1c-2.3-2.5-5-6.6-6.3-9.9c-0.2-0.6,0-1.3,0.5-1.8c3-2.7,4.2-3.9,4.3-5.3
	c0.1-0.8-1.7-11.1-3.5-12.1l-0.5-0.3c-1.2-0.8-2.9-1.9-4.8-1.5c-0.5,0.1-0.9,0.3-1.3,0.5c-1.3,0.8-4.5,3-5.9,5.9
	c-0.9,1.8-1.3,18.1,10.9,31.8c12.1,13.6,27,14.2,29.2,13.8h0.1l0.2-0.1c3-1.1,5.6-3.9,6.6-5.2C473.3,268.7,472.1,266.1,471.4,264.7"
	/>
</svg>
